# xmcd CD database file
#
# Track frame offsets:
#	150
#	13054
#	26940
#	39175
#	49269
#	59945
#	72677
#	86238
#	98180
#	109590
#	122477
#	132621
#	146485
#	161054
#	172552
#	186159
#	200224
#	213105
#	226271
#	239133
#	252321
#
# Disc length: 3540 seconds
#
# Revision: 0
# Processed by: cddbd v1.5.1PL0 Copyright (c) Steve Scherf et al.
# Submitted via: CDex 1.51
#
DISCID=3f0dd215
DTITLE=Cliff Carlisle - A Country Legacy 1930-1938 #C
DYEAR=2004
DGENRE=Country
TTITLE0=Columbus Stockade Blues
TTITLE1=Shanghai Rooster No. 2
TTITLE2=Brakeman's Reply, The
TTITLE3=Waiting For A Ride
TTITLE4=Hobo's Fate
TTITLE5=Cowboy Johnny's Last Ride
TTITLE6=Get Her By The Tail On A Downhill Grade
TTITLE7=My Travelin' Night
TTITLE8=True And Trembling Brakeman
TTITLE9=Hobo Blues
TTITLE10=Pan American Man
TTITLE11=Pay Day Fight
TTITLE12=Far Beyond The Starry Sky
TTITLE13=I'm Saving Saturday Night For You
TTITLE14=Dang My Rowdy Soul
TTITLE15=My Rocky Mountain Sweetheart
TTITLE16=Goin' Down The Road Feelin' Bad
TTITLE17=Georgia Moon
TTITLE18=I Don't Mind
TTITLE19=I'm Sorry Now
TTITLE20=Lonely Orphan Child
EXTD=YEAR: 2004
EXTT0=
EXTT1=
EXTT2=
EXTT3=
EXTT4=
EXTT5=
EXTT6=
EXTT7=
EXTT8=
EXTT9=
EXTT10=
EXTT11=
EXTT12=
EXTT13=
EXTT14=
EXTT15=
EXTT16=
EXTT17=
EXTT18=
EXTT19=
EXTT20=
PLAYORDER=
